<?xml version="1.0" standalone="no"?><!DOCTYPE svg PUBLIC "-//W3C//DTD SVG 1.1//EN" "http://www.w3.org/Graphics/SVG/1.1/DTD/svg11.dtd"><svg t="1531044523913" class="icon" style="" viewBox="0 0 1024 1024" version="1.1" xmlns="http://www.w3.org/2000/svg" p-id="1351" xmlns:xlink="http://www.w3.org/1999/xlink" width="200" height="200"><defs><style type="text/css"></style></defs><path d="M841.2672 833.8432c-0.7168-3.7376-1.7408-12.6976-3.2256-26.88-1.536-14.1824-3.5328-29.2864-5.9904-45.2608-2.56-15.9232-4.7616-31.4368-6.912-46.1312-2.2528-14.6944-3.84-24.9344-5.0688-30.4128-3.0208-10.5472-6.7072-19.1488-10.6496-25.9584-4.0448-6.8096-12.288-13.4144-24.5248-19.456-4.2496-1.8432-10.752-4.4544-19.3536-7.8336-8.6016-3.328-18.4832-7.1168-29.4912-11.0592-11.0592-3.9424-22.6304-8.1408-34.7136-12.4928-12.0832-4.352-23.552-8.4992-34.6624-12.4928-10.9568-4.0448-20.5824-7.2192-28.6208-9.728-7.9872-2.56-13.568-4.2496-16.64-5.5808-9.3184-2.56-15.5136-5.2736-18.5856-8.3968-3.0208-3.0208-4.9664-8.2432-5.5808-15.7184-0.6144-3.6352-0.9216-8.9088-0.9216-15.7184v-19.3536c0-7.424 0.3072-15.0016 0.9216-23.1424 6.1952-6.0928 12.3904-12.9024 18.5344-20.2752 4.9664-6.8096 9.728-14.2848 14.3872-22.6304 4.6592-8.3968 8.0896-17.664 10.6496-28.2112 4.2496-19.6608 6.912-35.072 7.7824-46.1312 0.9216-11.0592 1.3312-17.5616 1.3312-19.456 0-3.6352 1.7408-5.4784 5.0688-5.0688 3.328 0.3072 6.912-1.7408 10.6496-5.9904 2.56-2.3552 4.1472-8.8064 5.0688-19.3536 0.9216-10.4448 1.3312-22.2208 1.3312-35.072 0-13.0048-0.3072-25.344-0.9216-37.0176-0.6144-11.776-0.9216-20.3776-0.9216-25.9584-1.2288-17.8688-6.5024-32.8704-15.7184-44.8512-9.1136-11.9808-20.8896-19.5584-35.072-22.6304-12.3904-2.56-20.8896-3.2256-26.1632-2.56-4.864 0.9216-8.9088 0.2048-11.9808-2.2528-1.8432-1.2288-3.7376-2.9184-5.5808-5.0688-1.8432-2.1504-4.1472-4.4544-6.912-6.912-2.7136-2.3552-6.6048-5.0688-11.5712-7.8336-4.9664-2.7136-11.4688-5.2736-19.456-7.7824-7.424-1.8432-18.3808-2.7648-32.8704-2.7648-14.4896 0-29.7984 1.3312-45.824 3.7376-16.0256 2.56-31.8464 6.4-47.1552 11.5712-15.5136 5.1712-27.6992 11.8784-37.0176 19.7632-17.8688 16.64-29.44 34.8672-34.7136 54.5792-5.1712 19.6608-8.8064 40.3456-10.6496 61.8496-1.2288 21.504-2.048 38.144-2.3552 49.92-0.2048 11.776 2.048 22.7328 7.0144 33.28 1.8432 4.9664 4.7616 8.192 8.704 9.728 4.0448 1.536 6.5024 3.5328 7.0144 5.9904 0.512 2.4576 2.1504 10.6496 4.6592 24.5248 2.56 13.7728 7.9872 29.1328 16.64 45.7216 4.2496 8.704 9.3184 16.8448 14.7968 24.5248 5.5808 7.7312 11.0592 14.3872 16.64 19.8656 6.1952 6.8096 12.6976 12.9024 19.456 18.4832v53.6576c0 4.864-3.5328 8.704-10.6496 11.5712-7.1168 2.7648-15.3088 5.0688-24.5248 6.912-4.2496 1.2288-13.568 3.328-27.6992 6.5024-14.1824 3.1232-29.2352 6.8096-45.2608 11.0592-15.9232 4.4544-31.4368 8.9088-46.1312 13.8752-14.7968 4.864-25.0368 9.5232-30.5152 13.7728-11.0592 8.6016-18.8416 16.9472-23.552 24.9344-4.6592 7.9872-8.0896 15.616-10.6496 23.1424-1.2288 3.6352-3.328 13.056-6.5024 28.2112-3.0208 15.0016-6.5024 31.232-10.1376 48.4864-3.6352 17.2544-6.912 33.3824-9.728 48.4864-2.7648 15.0016-4.5568 24.7296-5.0688 29.1328-0.7168 4.9664 0 9.4208 1.8432 13.3632 1.8432 4.0448 4.4544 7.5264 7.7824 10.1376 3.328 2.816 6.912 5.0688 10.6496 7.0144 3.7376 1.8432 6.8096 3.0208 9.3184 3.6352 11.6736 3.1232 28.0064 6.0928 48.5888 8.8064 20.5824 2.7136 44.3392 5.1712 71.2192 7.424s56.2688 3.84 88.32 5.0688c32.1536 1.3312 65.7408 1.9456 100.8128 1.9456s68.4544-0.8192 100.3008-2.3552c31.8464-1.536 60.8768-3.5328 87.4496-5.9904 26.5728-2.3552 49.8176-5.0688 69.888-7.7824 20.0704-2.816 35.1744-5.4784 45.7216-7.936 12.4928-3.0208 20.2752-7.424 23.6544-12.9024 3.328-5.4784 4.6592-12.3392 4.0448-20.2752zM472.3712 768l-41.5744-109.056 37.0176-29.4912 26.6752 41.5744-22.1184 96.9728z m87.1424 0.1024l-25.0368-96.1536 26.9824-40.6528 38.8608 27.6992-40.8064 109.1072z m0 0" p-id="1352"></path><path d="M6.5024 789.3504c0.6144-3.2256 1.4848-10.9568 2.816-23.1936s3.072-25.2928 5.1712-39.0144c2.2016-13.7216 4.096-27.0848 5.9392-39.7824 1.9456-12.6976 3.328-21.504 4.352-26.2144 2.6112-9.1136 5.7856-16.5376 9.1648-22.3744 3.4816-5.8368 10.5984-11.52 21.1456-16.7936 3.6864-1.5872 9.2672-3.84 16.6912-6.7584s15.9232-6.144 25.4464-9.5232c9.5232-3.4304 19.5072-7.0144 29.9008-10.752 10.3936-3.7376 20.2752-7.3216 29.9008-10.752 9.4208-3.4816 17.7664-6.1952 24.6784-8.3968 6.912-2.2016 11.7248-3.6864 14.336-4.8128 8.0384-2.2016 13.3632-4.5568 16.0256-7.2704 2.6112-2.6112 4.3008-7.0656 4.8128-13.568 0.512-3.1232 0.768-7.68 0.768-13.568v-16.6912c0-6.4-0.256-12.9536-0.768-19.9168-5.3248-5.2224-10.6496-11.1104-16.0256-17.5104-4.3008-5.8368-8.3968-12.3392-12.3904-19.5072-4.0448-7.2704-7.0144-15.2064-9.1648-24.32-3.6864-16.9472-5.9392-30.2592-6.7072-39.7824s-1.1264-15.1552-1.1264-16.7936c0-3.1232-1.4848-4.7104-4.352-4.352-2.8672 0.256-5.9392-1.4848-9.1648-5.1712-2.2016-1.9968-3.584-7.6288-4.352-16.6912-0.768-9.0112-1.1264-19.1488-1.1264-30.2592 0-11.2128 0.256-21.8624 0.768-31.8976 0.512-10.1376 0.768-17.5616 0.768-22.3744 1.0752-15.4112 5.5808-28.3136 13.568-38.656 7.8848-10.3424 18.0224-16.896 30.2592-19.5072 10.6496-2.2016 18.0224-2.816 22.5792-2.2016 4.1984 0.768 7.68 0.1536 10.3424-1.9456 1.5872-1.024 3.2256-2.56 4.8128-4.352 1.5872-1.8432 3.584-3.84 5.9392-5.9392 2.3552-1.9968 5.6832-4.352 9.984-6.7584 4.3008-2.3552 9.8816-4.5568 16.7936-6.7072 6.4-1.5872 15.8208-2.3552 28.3136-2.3552 3.2256 0 6.4512 0.0512 9.728 0.2048-1.4848 1.5872-2.9184 3.2768-4.3008 5.0688-9.216 11.9808-14.4896 26.9824-15.7184 44.8512 0 5.5808-0.3072 14.1824-0.9216 25.9584-0.6144 11.6736-0.9216 24.0128-0.9216 37.0176 0 12.9024 0.4096 24.6272 1.3312 35.072 0.9216 10.5472 2.56 17.0496 5.0688 19.3536 3.7376 4.2496 7.3216 6.2976 10.6496 5.9904 3.328-0.4096 5.0688 1.4336 5.0688 5.0688 0 1.9456 0.4096 8.3968 1.3312 19.456s3.5328 26.4704 7.7824 46.1312c2.56 10.5472 5.9904 19.7632 10.6496 28.2112 4.6592 8.2944 9.4208 15.8208 14.3872 22.6304 6.1952 7.424 12.3904 14.1824 18.5344 20.2752 0.6144 8.1408 0.9216 15.7184 0.9216 23.1424v19.3536c0 6.8096-0.3072 12.0832-0.9216 15.7184-0.6144 7.5264-2.5088 12.6976-5.5808 15.7184-3.0208 3.1232-9.216 5.888-18.5856 8.3968-3.0208 1.3312-8.6016 3.0208-16.64 5.5808s-17.664 5.6832-28.6208 9.728c-11.1616 3.9424-22.6304 8.0896-34.6624 12.4928-12.0832 4.352-23.6544 8.4992-34.7136 12.4928-11.0592 3.9424-20.8896 7.7312-29.4912 11.0592-8.6016 3.328-15.104 5.9904-19.3536 7.8336-12.288 6.0928-20.48 12.6976-24.5248 19.456-3.9424 6.8096-7.6288 15.4112-10.6496 25.9584-1.2288 5.4784-2.816 15.7184-5.0688 30.4128-2.1504 14.6944-4.352 30.208-6.912 46.1312-2.4576 15.9232-4.4544 31.0272-5.9904 45.2608-1.1776 10.8032-1.9968 18.5344-2.6624 23.296-17.1008-1.6896-32.4096-3.5328-46.08-5.4272-17.3056-2.4576-30.3616-4.7104-39.424-6.8096-10.752-2.6112-17.5104-6.4-20.3776-11.1104-2.816-4.7616-3.9424-10.7008-3.4304-17.5104zM1005.7728 784.2304c-0.6144-3.2256-1.4848-10.9568-2.816-23.1936s-3.072-25.2928-5.1712-39.0144c-2.2016-13.7216-4.096-27.0848-5.9392-39.7824-1.9456-12.6976-3.328-21.504-4.352-26.2144-2.6112-9.1136-5.7856-16.5376-9.1648-22.3744-3.4816-5.8368-10.5984-11.52-21.1456-16.7936-3.6864-1.5872-9.2672-3.84-16.6912-6.7584-7.424-2.8672-15.9232-6.144-25.4464-9.5232-9.5232-3.4304-19.5072-7.0144-29.9008-10.752-10.3936-3.7376-20.2752-7.3216-29.9008-10.752-9.4208-3.4816-17.7664-6.1952-24.6784-8.3968-6.912-2.2016-11.7248-3.6864-14.336-4.8128-8.0384-2.2016-13.3632-4.5568-16.0256-7.2704-2.6112-2.6112-4.3008-7.0656-4.8128-13.568-0.512-3.1232-0.768-7.68-0.768-13.568v-16.6912c0-6.4 0.256-12.9536 0.768-19.9168 5.3248-5.2224 10.6496-11.1104 16.0256-17.5104 4.3008-5.8368 8.3968-12.3392 12.3904-19.5072 4.0448-7.2704 7.0144-15.2064 9.1648-24.32 3.6864-16.9472 5.9392-30.2592 6.7072-39.7824s1.1264-15.1552 1.1264-16.7936c0-3.1232 1.4848-4.7104 4.352-4.352 2.8672 0.256 5.9392-1.4848 9.1648-5.1712 2.2016-1.9968 3.584-7.6288 4.352-16.6912 0.768-9.0112 1.1264-19.1488 1.1264-30.2592 0-11.2128-0.256-21.8624-0.768-31.8976-0.512-10.1376-0.768-17.5616-0.768-22.3744-1.0752-15.4112-5.5808-28.3136-13.568-38.656-7.8848-10.3424-18.0224-16.896-30.2592-19.5072-10.6496-2.2016-18.0224-2.816-22.5792-2.2016-4.1984 0.768-7.68 0.1536-10.3424-1.9456-1.5872-1.024-3.2256-2.56-4.8128-4.352-1.5872-1.8432-3.584-3.84-5.9392-5.9392-2.3552-1.9968-5.6832-4.352-9.984-6.7584-4.3008-2.3552-9.8816-4.5568-16.7936-6.7072-6.4-1.5872-15.8208-2.3552-28.3136-2.3552-3.2256 0-6.4512 0.0512-9.728 0.2048 1.4848 1.5872 2.9184 3.2768 4.3008 5.0688 9.216 11.9808 14.4896 26.9824 15.7184 44.8512 0 5.5808 0.3072 14.1824 0.9216 25.9584 0.6144 11.6736 0.9216 24.0128 0.9216 37.0176 0 12.9024-0.4096 24.6272-1.3312 35.072-0.9216 10.5472-2.56 17.0496-5.0688 19.3536-3.7376 4.2496-7.3216 6.2976-10.6496 5.9904-3.328-0.4096-5.0688 1.4336-5.0688 5.0688 0 1.9456-0.4096 8.3968-1.3312 19.456s-3.5328 26.4704-7.7824 46.1312c-2.56 10.5472-5.9904 19.7632-10.6496 28.2112-4.6592 8.2944-9.4208 15.8208-14.3872 22.6304-6.1952 7.424-12.3904 14.1824-18.5344 20.2752-0.6144 8.1408-0.9216 15.7184-0.9216 23.1424v19.3536c0 6.8096 0.3072 12.0832 0.9216 15.7184 0.6144 7.5264 2.5088 12.6976 5.5808 15.7184 3.0208 3.1232 9.216 5.888 18.5856 8.3968 3.0208 1.3312 8.6016 3.0208 16.64 5.5808s17.664 5.6832 28.6208 9.728c11.1616 3.9424 22.6304 8.0896 34.6624 12.4928 12.0832 4.352 23.6544 8.4992 34.7136 12.4928 11.0592 3.9424 20.8896 7.7312 29.4912 11.0592s15.104 5.9904 19.3536 7.8336c12.288 6.0928 20.48 12.6976 24.5248 19.456 3.9424 6.8096 7.6288 15.4112 10.6496 25.9584 1.2288 5.4784 2.816 15.7184 5.0688 30.4128 2.1504 14.6944 4.352 30.208 6.912 46.1312 2.4576 15.9232 4.4544 31.0272 5.9904 45.2608 1.1776 10.8032 1.9968 18.5344 2.6624 23.296 17.1008-1.6896 32.4096-3.5328 46.08-5.4272 17.3056-2.4576 30.3616-4.7104 39.424-6.8096 10.752-2.6112 17.5104-6.4 20.3776-11.1104 2.816-4.7616 3.9424-10.7008 3.4304-17.5104z" p-id="1353"></path></svg>